<?xml version="1.0" encoding="UTF-8" standalone="no"?>
<!-- Created with Inkscape (http://www.inkscape.org/) -->

<svg
   xmlns:dc="http://purl.org/dc/elements/1.1/"
   xmlns:cc="http://creativecommons.org/ns#"
   xmlns:rdf="http://www.w3.org/1999/02/22-rdf-syntax-ns#"
   xmlns:svg="http://www.w3.org/2000/svg"
   xmlns="http://www.w3.org/2000/svg"
   xmlns:sodipodi="http://sodipodi.sourceforge.net/DTD/sodipodi-0.dtd"
   xmlns:inkscape="http://www.inkscape.org/namespaces/inkscape"
   width="200.52177mm"
   height="34.15081mm"
   viewBox="0 0 710.51021 121.0068"
   id="svg2"
   version="1.1"
   inkscape:version="0.91 r13725"
   sodipodi:docname="ancestorchain.svg"
   inkscape:export-filename="/Users/jussiholtta/github/misc-graphics/ancestorchain.png"
   inkscape:export-xdpi="248.97023"
   inkscape:export-ydpi="248.97023">
  <defs
     id="defs4" />
  <sodipodi:namedview
     id="base"
     pagecolor="#ffffff"
     bordercolor="#666666"
     borderopacity="1.0"
     inkscape:pageopacity="0.0"
     inkscape:pageshadow="2"
     inkscape:zoom="0.58994709"
     inkscape:cx="416.05836"
     inkscape:cy="57.176275"
     inkscape:document-units="px"
     inkscape:current-layer="layer1"
     showgrid="false"
     inkscape:window-width="1440"
     inkscape:window-height="851"
     inkscape:window-x="0"
     inkscape:window-y="1"
     inkscape:window-maximized="1"
     width="200mm"
     units="in"
     fit-margin-top="2"
     fit-margin-left="8"
     fit-margin-right="8"
     fit-margin-bottom="2" />
  <metadata
     id="metadata7">
    <rdf:RDF>
      <cc:Work
         rdf:about="">
        <dc:format>image/svg+xml</dc:format>
        <dc:type
           rdf:resource="http://purl.org/dc/dcmitype/StillImage" />
        <dc:title></dc:title>
      </cc:Work>
    </rdf:RDF>
  </metadata>
  <g
     inkscape:label="Layer 1"
     inkscape:groupmode="layer"
     id="layer1"
     transform="translate(37.191709,-239.40777)">
    <g
       transform="translate(-120.18843,319.17957)"
       style="stroke:#b400b4;stroke-opacity:1"
       id="g5031">
      <circle
         r="15.381823"
         cy="-47.301479"
         cx="749.70203"
         id="circle5033"
         style="opacity:1;fill:none;fill-opacity:0.09803922;fill-rule:evenodd;stroke:#b400b4;stroke-width:3.54330707;stroke-linecap:round;stroke-linejoin:round;stroke-miterlimit:4;stroke-dasharray:none;stroke-dashoffset:0;stroke-opacity:1" />
      <path
         inkscape:connector-curvature="0"
         id="path5035"
         d="m 749.06108,-33.20148 0,39.09547 -11.04952,19.13833"
         style="fill:none;fill-opacity:0.09803922;fill-rule:evenodd;stroke:#b400b4;stroke-width:3.54330707;stroke-linecap:butt;stroke-linejoin:miter;stroke-miterlimit:4;stroke-dasharray:none;stroke-opacity:1" />
      <path
         inkscape:connector-curvature="0"
         id="path5037"
         d="m 749.06108,5.25308 10.93223,18.93517"
         style="fill:none;fill-opacity:0.09803922;fill-rule:evenodd;stroke:#b400b4;stroke-width:3.54330707;stroke-linecap:butt;stroke-linejoin:miter;stroke-miterlimit:4;stroke-dasharray:none;stroke-opacity:1" />
      <path
         inkscape:connector-curvature="0"
         id="path5039"
         d="m 736.8838,-13.9742 12.17728,-10.89546 12.81819,11.53637"
         style="fill:none;fill-opacity:0.09803922;fill-rule:evenodd;stroke:#b400b4;stroke-width:3.54330707;stroke-linecap:butt;stroke-linejoin:miter;stroke-miterlimit:4;stroke-dasharray:none;stroke-opacity:1" />
    </g>
    <path
       style="fill:#b400dc;fill-opacity:1;fill-rule:evenodd;stroke:none;stroke-width:1px;stroke-linecap:butt;stroke-linejoin:miter;stroke-opacity:1"
       d="m 212.36102,325.59453 0,-26.10408 42.26367,28.59016 32.31929,-23.61792 -28.59014,-16.15968 z"
       id="path4950"
       inkscape:connector-curvature="0" />
    <g
       id="g5019"
       transform="matrix(2,0,0,2,193.27562,-429.70081)">
      <path
         inkscape:connector-curvature="0"
         id="path4954"
         d="m -75.435991,382.00194 -1.773399,-5.90979 7.080645,-1.51702 0.574781,7.18107 z"
         style="fill:#b400dc;fill-opacity:1;fill-rule:evenodd;stroke:none;stroke-width:1px;stroke-linecap:butt;stroke-linejoin:miter;stroke-opacity:1"
         inkscape:transform-center-x="-1.6950673"
         inkscape:transform-center-y="-2.5425863" />
      <path
         inkscape:connector-curvature="0"
         id="path4956"
         d="m -74.786901,374.01739 3.418386,-3.39014 5.904484,1.2713 -4.972197,4.66144 z"
         style="fill:#b400dc;fill-opacity:1;fill-rule:evenodd;stroke:none;stroke-width:1px;stroke-linecap:butt;stroke-linejoin:miter;stroke-opacity:1" />
      <path
         inkscape:connector-curvature="0"
         id="path4958"
         d="m -68.430399,376.55999 5.260554,3.39014 3.214782,-5.93274 -4.091541,-1.69507 z"
         style="fill:#b400dc;fill-opacity:1;fill-rule:evenodd;stroke:none;stroke-width:1px;stroke-linecap:butt;stroke-linejoin:miter;stroke-opacity:1" />
      <path
         inkscape:connector-curvature="0"
         id="path4960"
         d="m -71.396766,382.91649 5.932735,3.39014 4.237668,-6.78027 -6.356502,-2.11884 z"
         style="fill:#b400dc;fill-opacity:1;fill-rule:evenodd;stroke:none;stroke-width:1px;stroke-linecap:butt;stroke-linejoin:miter;stroke-opacity:1" />
      <path
         style="opacity:0.83999999;fill:#b400dc;fill-opacity:1;fill-rule:evenodd;stroke:none;stroke-width:1px;stroke-linecap:butt;stroke-linejoin:miter;stroke-opacity:1"
         d="m 174.26691,377.19564 5.44843,0 -3.63228,-2.96637 4.23766,-6.3565 -5.14573,-4.66143 -4.84305,6.78027 -0.60538,7.20403 z"
         id="path5025"
         inkscape:connector-curvature="0" />
      <path
         style="opacity:0.83999999;fill:#b400dc;fill-opacity:1;fill-rule:evenodd;stroke:none;stroke-width:0.74456692px;stroke-linecap:butt;stroke-linejoin:miter;stroke-opacity:1"
         d="m 173.88707,364.75103 2.71547,-4.11308 3.29057,-3.29774 4.05124,1.41601 1.09192,3.6254 -3.47256,2.69351 -2.23495,1.33218 z"
         id="path5027"
         inkscape:connector-curvature="0" />
      <path
         style="opacity:0.83999999;fill:#b400dc;fill-opacity:1;fill-rule:evenodd;stroke:none;stroke-width:1px;stroke-linecap:butt;stroke-linejoin:miter;stroke-opacity:1"
         d="m 178.62566,367.87277 3.39014,10.1704 2.96636,0.42377 -3.8139,-11.4417 z"
         id="path5029"
         inkscape:connector-curvature="0" />
    </g>
    <path
       inkscape:connector-curvature="0"
       id="path4998"
       d="m -10.540346,324.26669 11.8654696,6.78028 8.4753295,-13.56054 -12.7129995,-4.23768 z"
       style="fill:#b400dc;fill-opacity:1;fill-rule:evenodd;stroke:none;stroke-width:1px;stroke-linecap:butt;stroke-linejoin:miter;stroke-opacity:1" />
    <path
       style="opacity:1;fill:#b400dc;fill-opacity:1;fill-rule:evenodd;stroke:none;stroke-width:7.08661413;stroke-linecap:round;stroke-linejoin:round;stroke-miterlimit:4;stroke-dasharray:none;stroke-dashoffset:0;stroke-opacity:0.60784314"
       id="path4972"
       d="m 94.632873,323.22151 c 3.59488,-2.5105 6.945807,-5.28796 10.034527,-8.40168 1.71049,-1.58184 3.27911,-3.26866 5.32396,-4.41038 6.37474,-2.16894 14.63795,-0.35738 20.48447,-0.20564 1.44669,0.9567 2.51934,2.46196 3.32877,3.9848 1.4526,1.3794 2.13486,3.28782 3.51359,4.7774 0.74676,0.4602 0.65518,1.44952 1.1677,2.0435 0.17922,0.2077 0.52817,0.184 0.74228,0.35552 0.55912,0.44792 1.01234,1.2517 1.41193,1.84568 0.43374,0.0316 1.81197,2.13486 2.00012,2.14606 0.18274,0.01 0.30846,-0.1972 0.46269,-0.29586 0.89862,0.1964 1.83181,0.0662 2.75407,0.0362 7.02942,-0.058 -24.97945,0.02 -12.70158,-0.018 1.76858,-0.006 3.53718,-0.01 5.30577,-0.006 2.1193,0.0696 3.89279,-1.10808 5.6381,-2.15266 1.52707,-0.92726 2.95269,-1.9809 4.42817,-2.97564 1.05446,-0.79244 2.16324,-1.36012 3.132,-2.26484 0.15908,-0.0812 0.31817,-0.1626 0.47726,-0.24378 0,0 16.7605,1.88058 16.7605,1.88058 l 0,0 c -0.16658,0.0774 -0.33318,0.1548 -0.49976,0.23232 -0.97098,-0.014 -1.98094,1.64744 -3.1132,1.9836 -1.47319,1.13286 -2.96393,2.05236 -4.5052,3.09422 -1.86521,1.17842 -3.63534,2.4195 -5.74334,3.07094 -1.75839,0.006 -3.51678,0.002 -5.27517,0.006 -6.85752,0.021 -13.71543,0.1188 -20.57283,0.014 -0.97938,-0.0518 -1.94032,-0.1474 -2.82393,-0.61826 -0.83284,-0.97616 -1.77899,-1.83032 -2.55647,-2.85064 -1.04789,-1.39288 -2.35231,-2.57216 -3.20037,-4.12104 -1.25968,-1.65502 -2.27783,-3.46982 -3.61982,-5.06196 -0.77107,-1.22302 -1.70895,-2.40544 -3.19934,-2.69678 28.32487,0.0328 19.0768,0.1408 12.96014,-0.0648 -0.65298,0.26046 -1.58443,0.50612 -2.15987,0.87108 -1.2186,0.77284 -1.99527,2.262 -3.32399,2.91074 -2.93663,3.19136 -6.29057,6.05132 -9.91159,8.45072 0,0 -16.719587,-1.31586 -16.719587,-1.31586 z"
       inkscape:connector-curvature="0" />
    <path
       style="fill:#b400dc;fill-opacity:1;fill-rule:evenodd;stroke:none;stroke-width:1px;stroke-linecap:butt;stroke-linejoin:miter;stroke-opacity:1"
       d="m 321.26908,304.34967 25.42602,-12.713 39.83408,-4.23768 31.35873,5.93274 17.7982,8.47534 -22.03588,6.78026 -18.64574,0.84754 11.01795,11.86548 -14.40806,-0.84754 -5.0852,-12.713 -2.5426,0.84752 2.5426,11.01794 -12.71302,0.84754 5.93274,-13.56054 -33.90134,0 8.47534,11.86546 -11.01794,0 -1.69508,-11.01792 -5.0852,9.32286 -6.78026,0 5.0852,-7.6278 -25.426,4.23766 z"
       id="path4994"
       inkscape:connector-curvature="0" />
    <path
       style="fill:#b400dc;fill-opacity:1;fill-rule:evenodd;stroke:none;stroke-width:1px;stroke-linecap:butt;stroke-linejoin:miter;stroke-opacity:1"
       d="m 461.62139,315.11933 11.275,-3.7412 2.11882,-1.69506 6.35652,0 5.50896,1.69506 -1.69506,-2.96636 5.0852,0.42376 -0.84754,2.96638 5.0852,3.39012 -8.05156,1.2713 0.42376,2.5426 -1.69506,0.42378 -0.42378,-2.5426 -2.11882,-0.42378 0.84752,2.96638 -2.5426,-0.42378 -0.84754,-2.96636 -5.0852,0 0.84754,3.39014 -2.5426,0 0,-3.39014 -1.2713,2.11884 -1.69506,0.42376 1.69506,-2.5426 -0.1498,-3.48854 -3.63838,1.54524 z"
       id="path4996"
       inkscape:connector-curvature="0"
       sodipodi:nodetypes="ccccccccccccccccccccccccccc" />
  </g>
</svg>
