<?xml version="1.0" encoding="UTF-8" standalone="no"?>
<!-- Created with Inkscape (http://www.inkscape.org/) -->

<svg
   xmlns:dc="http://purl.org/dc/elements/1.1/"
   xmlns:cc="http://creativecommons.org/ns#"
   xmlns:rdf="http://www.w3.org/1999/02/22-rdf-syntax-ns#"
   xmlns:svg="http://www.w3.org/2000/svg"
   xmlns="http://www.w3.org/2000/svg"
   xmlns:sodipodi="http://sodipodi.sourceforge.net/DTD/sodipodi-0.dtd"
   xmlns:inkscape="http://www.inkscape.org/namespaces/inkscape"
   width="210mm"
   height="297mm"
   viewBox="0 0 744.09448819 1052.3622047"
   id="svg12192"
   version="1.1"
   inkscape:version="0.91 r13725"
   sodipodi:docname="dna.svg">
  <defs
     id="defs12194" />
  <sodipodi:namedview
     id="base"
     pagecolor="#ffffff"
     bordercolor="#666666"
     borderopacity="1.0"
     inkscape:pageopacity="0.0"
     inkscape:pageshadow="2"
     inkscape:zoom="0.66608906"
     inkscape:cx="440.20257"
     inkscape:cy="647.38959"
     inkscape:document-units="px"
     inkscape:current-layer="layer1"
     showgrid="false"
     inkscape:window-width="1440"
     inkscape:window-height="851"
     inkscape:window-x="0"
     inkscape:window-y="1"
     inkscape:window-maximized="1" />
  <metadata
     id="metadata12197">
    <rdf:RDF>
      <cc:Work
         rdf:about="">
        <dc:format>image/svg+xml</dc:format>
        <dc:type
           rdf:resource="http://purl.org/dc/dcmitype/StillImage" />
        <dc:title></dc:title>
      </cc:Work>
    </rdf:RDF>
  </metadata>
  <g
     inkscape:label="Layer 1"
     inkscape:groupmode="layer"
     id="layer1">
    <path
       style="opacity:0.83999999;fill:#b400b4;fill-opacity:1;fill-rule:evenodd;stroke:#b400b4;stroke-width:7.08661413;stroke-linecap:round;stroke-linejoin:round;stroke-miterlimit:4;stroke-dasharray:none;stroke-dashoffset:0;stroke-opacity:1"
       id="path12754"
       d="m 61.103958,82.605207 c 3.981715,-1.511489 8.076734,-2.681789 12.114994,-4.024139 4.217862,-1.379373 8.412308,-2.866071 12.728268,-3.911865 3.239136,-0.784178 6.573723,-0.952065 9.891412,-1.03618 9.222498,-0.116791 18.446428,-0.03523 27.669498,-0.01303 3.3227,0.0093 6.64543,0.0094 9.96814,0.008 1.66166,0.0043 3.32332,0.0022 4.98498,0.0034 0.61153,4.31e-4 2.44612,0.0022 1.83459,0.0023 -5.18636,0.0011 -10.37272,4.92e-4 -15.55908,5.4e-4 -0.61935,6e-6 1.2387,-2.76e-4 1.85805,-4.14e-4 9.56184,0.198506 19.23084,-0.825606 28.71767,0.540492 3.35728,0.866305 6.53758,2.216142 9.46511,4.06624 2.79132,1.262174 4.90802,3.628662 7.28889,5.510884 0.98478,1.47429 2.63769,2.320818 3.79479,3.604883 2.67466,2.968136 -0.92486,-0.406583 1.82657,2.07512 2.72639,2.3353 5.35828,4.775664 7.95776,7.25038 1.29272,2.125959 3.52487,3.349522 5.12297,5.161402 0.7416,0.84081 1.32849,1.80721 2.03118,2.68079 1.96629,2.62399 4.43156,4.93133 5.85137,7.91273 0.98622,0.85699 1.19281,2.17046 1.80825,3.21624 0.15748,0.26759 0.47568,0.40515 0.66904,0.64807 0.0243,0.0305 1.2426,1.91897 1.29674,2.00281 1.20052,1.71787 2.40184,3.40731 3.50689,5.18761 1.01249,0.95153 1.80616,2.14655 2.64365,3.26127 0.42334,0.19299 0.32919,0.7442 0.61063,1.02534 0.10051,0.10041 0.32289,-0.0577 0.42416,0.042 0.52079,0.51249 0.0762,1.33639 0.73755,1.65376 1.05344,0.36575 0.63876,1.81221 1.31763,2.49982 1.18683,1.2021 -0.27911,-1.83108 0.8761,1.14011 1.13386,0.38637 0.13781,-0.10702 1.07436,1.19458 0.29746,0.4134 0.87836,0.55343 1.19438,0.95282 0.22325,0.28216 0.25409,0.69794 0.50902,0.95184 0.16806,0.1674 0.44964,0.15128 0.67446,0.22692 1.34642,1.61177 3.41525,2.68326 5.43595,3.16313 3.44698,0.19276 6.81767,0.87957 10.26097,1.17213 4.87667,0.34256 9.76689,0.3889 14.65337,0.42365 -6.20305,0.0272 13.08253,0.0106 6.7035,0.0112 -28.23959,0.003 -16.50944,-0.001 -10.31688,-0.001 4.73223,-10e-4 9.46445,-0.0104 14.19668,-0.009 4.16996,0.0645 8.11849,-1.08709 12.01739,-2.42386 3.87907,-1.10458 7.62428,-2.51696 11.25543,-4.26748 4.17336,-2.15669 8.52384,-3.97127 12.59803,-6.31134 3.88906,-2.06865 7.73492,-4.2041 11.31274,-6.78038 3.04105,-2.37486 5.57142,-5.29612 8.32264,-7.98369 2.69276,-2.70308 5.76853,-4.95873 8.75636,-7.31406 3.20724,-2.20782 6.10601,-4.80263 9.20142,-7.162835 3.22157,-2.328175 6.4456,-4.600914 10.09126,-6.209696 3.50407,-1.449049 7.06372,-2.74241 10.58753,-4.141915 2.60997,-0.950253 4.95525,-2.409843 7.33796,-3.805014 2.1483,-1.285011 4.57444,-2.166697 6.96952,-2.878042 3.60398,-0.608045 7.25213,-0.810738 10.8702,-1.354201 4.02267,-0.581749 8.08387,-0.752261 12.14133,-0.868587 9.13841,0.308715 19.12787,-2.275351 27.71638,1.062628 1.10031,0.328719 1.82812,1.265212 2.80933,1.781867 0.48227,0.253938 1.04393,0.3257 1.53689,0.558211 1.83156,0.863887 3.5459,2.045526 5.35417,2.970095 3.75952,1.672048 7.20244,4.066256 10.60555,6.377818 3.00624,1.577688 5.38987,4.010191 8.05696,6.024438 2.62344,1.548923 4.69346,3.884083 7.13775,5.710323 1.3886,1.49499 2.72658,3.10148 4.27241,4.44321 0.57392,0.49814 1.25327,0.86857 1.81176,1.38396 1.27125,1.17316 2.36357,2.52679 3.57121,3.76534 3.29871,4.03993 7.42842,7.27208 10.35994,11.60361 2.58851,2.49641 3.87056,5.83289 5.80773,8.75593 1.54362,2.29656 2.30733,4.95731 3.93189,7.20115 1.89214,1.83298 2.91853,4.28247 4.55816,6.27737 0.21218,0.23442 0.4472,0.45003 0.63653,0.70326 1.00899,1.34955 2.12212,1.85794 3.02877,3.07615 1.07654,-0.005 1.36302,0.86247 2.08358,1.45638 0.52959,0.4365 1.27904,0.78738 1.85835,1.17531 0.7532,0.85089 1.81729,0.42886 2.71779,0.74651 0.40324,0.14224 0.70621,0.49462 1.10179,0.65694 0.73834,0.30297 2.03934,0.36732 2.76632,0.442 3.77,0.3765 7.56667,0.35197 11.35134,0.36615 9.48311,4e-4 -12.79706,-5.5e-4 -12.90978,-6e-4 -0.68161,-3.5e-4 1.36322,-0.004 2.04483,-0.006 1.90188,-0.006 3.80375,-0.0101 5.70563,-0.0143 3.52643,-0.26744 6.91874,-1.16156 10.2396,-2.33165 4.06498,-1.88764 8.12915,-3.76873 12.1275,-5.79515 5.02397,-2.73003 10.27832,-5.00111 15.31576,-7.69893 4.12271,-2.62261 8.34807,-5.0746 12.52528,-7.60842 2.80326,-2.14672 5.89303,-3.83817 8.90232,-5.66635 2.55633,-1.7757 4.88326,-3.81711 7.23228,-5.84955 2.85195,-2.46496 5.73495,-4.84932 8.81593,-7.02707 3.68172,-2.4048 7.68849,-4.23246 11.64287,-6.13392 3.67547,-1.91799 7.48396,-3.66593 10.98674,-5.89045 2.3297,-1.86438 4.74014,-3.635135 6.98541,-5.602536 0.82008,-0.775013 1.57963,-1.610383 2.37166,-2.41362 0,0 17.84518,1.174573 17.84518,1.174573 l 0,0 c -0.68946,1.069253 -1.78492,1.705644 -2.47899,2.788848 -2.38283,1.926505 -4.77978,3.830765 -7.15759,5.760725 -1.47694,1.08733 -1.79391,1.42437 -3.47299,2.23286 -0.6005,0.28914 -1.26457,0.43739 -1.85431,0.74789 -1.92275,1.01233 -3.66715,2.42269 -5.73183,3.19497 -3.94847,1.78309 -7.82636,3.70372 -11.5984,5.8207 -2.12632,1.5059 -4.38523,2.92618 -6.283,4.72785 -0.41283,0.39193 -0.72734,0.88211 -1.1545,1.25839 -0.38577,0.33982 -0.84603,0.58432 -1.26904,0.87648 -2.38631,2.07089 -4.6941,4.1931 -7.24139,6.05834 -2.86754,2.1466 -6.34653,3.31483 -9.03496,5.75402 -4.24871,2.5088 -8.52067,4.96277 -12.65215,7.65912 -4.98213,2.81266 -10.29238,4.93517 -15.2639,7.7753 -4.01472,1.97129 -8.0003,3.96577 -12.01946,5.93714 -1.35641,0.63692 -3.55694,1.53992 -4.99312,1.94306 -1.73282,0.48641 -3.6813,0.23353 -5.34387,1.06643 -9.8912,0.015 -19.78249,0.0385 -29.67367,0.006 -3.83361,-0.0288 -7.69223,-0.0275 -11.48781,-0.63407 -2.3735,-0.54715 -4.81461,-1.20972 -6.84856,-2.5936 -1.35965,-0.95943 -2.6328,-2.0173 -3.95158,-3.0205 -1.44034,-1.12155 -2.59817,-2.45485 -3.60095,-3.98369 -1.47156,-2.15892 -2.88375,-4.34291 -4.53838,-6.37778 -1.43247,-2.35375 -2.43779,-4.92642 -3.91637,-7.25515 -1.73316,-2.99592 -3.35647,-6.02733 -5.64608,-8.66464 -3.00729,-4.1442 -7.03346,-7.39393 -10.30893,-11.32299 -3.15096,-3.24085 -6.60553,-6.1389 -9.79294,-9.34376 -2.36481,-1.93789 -4.62048,-4.01876 -7.15962,-5.73254 -2.51136,-2.149122 -5.14603,-4.12452 -7.95967,-5.869246 -3.42733,-2.220043 -6.80115,-4.561281 -10.56194,-6.199227 -3.22619,-1.728226 -6.44566,-3.506659 -9.77433,-5.014372 -6.57382,-1.802381 -1.89698,-0.375093 14.37427,-0.576973 0.54383,-0.0067 -1.08774,-0.0029 -1.63161,-0.0028 -1.13388,1.95e-4 -2.52497,0.0046 -3.65903,0.01314 -0.59134,0.0045 -1.18266,0.01163 -1.77398,0.01744 -4.03764,0.06836 -8.07871,0.177561 -12.09318,0.652343 -3.59151,0.530392 -7.15611,1.066396 -10.78692,1.230589 -0.74749,0.115217 -1.8635,0.224656 -2.58083,0.558708 -0.40118,0.18682 -0.70604,0.55034 -1.11354,0.722933 -0.96645,0.409332 -2.23676,0.276233 -3.14561,0.917424 -1.0334,0.846234 -2.01745,1.111445 -3.11075,1.813677 -0.44599,0.286461 -0.75891,0.758997 -1.22089,1.018885 -1.00741,0.566726 -2.32706,0.474728 -3.15567,1.437462 -5.71705,1.798611 2.73069,-0.954117 -3.32641,1.361994 -3.855,1.47407 0.40645,-0.629524 -3.55644,1.109485 -0.64195,0.281705 -1.21926,0.699509 -1.86574,0.970649 -0.60525,0.253845 -1.25053,0.399046 -1.87579,0.598569 -3.64882,1.441103 -6.92589,3.402763 -10.02003,5.83513 -3.28508,2.10406 -5.92712,4.96358 -9.20716,7.0835 -3.00631,2.25697 -6.04005,4.52392 -8.72015,7.16945 -2.98207,2.52314 -5.34005,5.70159 -8.42732,8.12894 -3.46797,2.79652 -7.36938,5.02755 -11.36459,6.9721 -3.99951,2.50244 -8.35636,4.28703 -12.54584,6.43849 -3.56596,1.91807 -7.28757,3.56581 -11.25878,4.44078 -3.83956,1.69634 -7.96634,2.77429 -12.16572,3.06768 -4.74152,0.003 -9.48303,-0.003 -14.22454,0.004 -10.36515,0.016 -20.73053,0.0471 -31.0955,-0.021 -4.89923,-0.0616 -9.8036,-0.14525 -14.68743,-0.57037 -3.51308,-0.37156 -7.07104,-0.77517 -10.50663,-1.57443 -2.05088,-0.95839 -3.93275,-2.10901 -5.5604,-3.69878 -1.19043,-1.36309 -2.47898,-2.62585 -3.52372,-4.10717 -0.9203,-1.07698 -1.23265,-2.45614 -2.24116,-3.45933 -0.40336,-1.01957 -1.11282,-1.74985 -1.77461,-2.63639 -0.82403,-1.15865 -1.71543,-2.26168 -2.56626,-3.39856 -1.10241,-1.75228 -2.30892,-3.43957 -3.46325,-5.15796 -1.30116,-1.98757 -2.57043,-3.96661 -3.72538,-6.04345 -1.58076,-2.75314 -3.86572,-5.04891 -5.78449,-7.56433 -2.17841,-2.70999 -4.784,-4.98341 -7.07117,-7.604335 -2.65207,-2.474481 -5.38321,-4.857737 -8.07879,-7.2835 -1.79007,-1.922497 -3.7044,-3.705259 -5.60088,-5.522765 -2.25339,-1.944167 -4.51161,-3.917861 -7.20902,-5.231453 -2.92831,-1.575926 -6.02926,-2.857252 -9.33589,-3.36833 -7.12421,-0.815375 -2.45497,-0.203136 13.72679,-0.314545 0.62798,-0.0043 -1.256,-5.83e-4 -1.884,-6.71e-4 -1.88126,-2.62e-4 -3.76251,0.003 -5.64377,0.0011 -9.36134,-0.0018 -18.72269,-0.0017 -28.08402,0.0042 -3.30843,-0.0049 -6.61685,-0.01084 -9.92527,-0.0188 -0.57355,-0.0018 -1.1471,-0.0037 -1.72065,-0.0054 -0.58623,-0.0017 -1.17245,-0.0036 -1.75868,-0.0048 -10.039668,-0.02071 22.04539,-0.01 12.40517,-0.0058 -0.54664,2.4e-4 -1.09328,0.0027 -1.63993,0.004 -3.30425,0.0296 -6.63485,0.064 -9.89177,0.682356 -4.369302,0.853511 -8.556071,2.358796 -12.796378,3.692649 -3.913653,1.415369 -7.93784,2.472242 -11.819999,3.977138 0,0 -17.707565,-2.117724 -17.707565,-2.117724 z"
       inkscape:connector-curvature="0" />
    <path
       style="opacity:0.83999999;fill:#b400b4;fill-opacity:1;fill-rule:evenodd;stroke:#b400b4;stroke-width:7.08661413;stroke-linecap:round;stroke-linejoin:round;stroke-miterlimit:4;stroke-dasharray:none;stroke-dashoffset:0;stroke-opacity:1"
       id="path12756"
       d="m 633.65775,172.63996 c -7.71255,-5.57757 -14.66512,-12.17218 -21.32473,-18.95477 -6.616,-6.64958 -12.86833,-13.66676 -19.24576,-20.55505 -4.35904,-4.8629 -8.63466,-9.78692 -12.74586,-14.86222 -3.41027,-3.39459 -5.76883,-7.73837 -9.32782,-10.97416 -2.72467,-2.87171 -5.76987,-5.54154 -7.79708,-8.974599 -1.55243,-1.845322 -2.5995,-4.136207 -4.17013,-5.960257 -0.68778,-0.79875 -1.546,-1.433959 -2.29056,-2.180069 -1.46298,-2.495155 -3.98768,-4.010937 -6.28896,-5.651995 -1.17914,-0.365369 -2.01435,-1.448758 -3.1437,-1.894826 -1.0885,-0.429934 -2.48538,-0.363109 -3.62884,-0.661942 -2.83061,-0.618767 -5.60477,-1.203288 -8.50299,-1.258093 -7.29757,0.03073 0.55276,-0.0054 14.17141,0.02548 0.57681,0.0013 -1.15361,0.0072 -1.73038,0.01374 -1.72693,0.01948 -3.45378,0.05312 -5.18062,0.07958 -3.51381,0.05145 -7.02802,0.06377 -10.54216,0.06665 -4.39932,-0.146667 -8.72461,0.605591 -12.99317,1.576056 -4.96876,0.914993 -9.95614,1.675598 -14.81377,3.082644 -5.54222,1.391349 -10.90851,3.318936 -16.20956,5.431088 -5.30117,2.460103 -10.69943,4.704179 -15.84416,7.484027 -4.69293,2.534786 -9.20449,5.346666 -13.43797,8.589986 -3.80613,2.79476 -7.4483,5.79198 -10.9584,8.94785 -2.96865,2.5628 -5.78233,5.30957 -8.53706,8.10132 -2.4047,2.41392 -4.71102,4.92013 -6.93926,7.49715 -2.14057,2.67524 -4.12691,5.48174 -6.11607,8.27337 -1.95203,2.74074 -4.04165,5.40844 -6.35689,7.85339 -2.32512,2.23989 -4.6637,4.45328 -7.17827,6.48126 -2.0132,1.83688 -4.34981,3.22066 -6.65348,4.64942 -1.89886,1.11854 -3.87799,2.08083 -5.82704,3.10717 -1.66953,0.85883 -3.23484,1.89783 -4.8092,2.91491 -1.54333,0.90168 -2.91978,2.04494 -4.27878,3.19673 -1.81839,1.35538 -3.82808,2.38603 -5.78148,3.52287 -2.33704,1.23236 -4.66898,2.39345 -7.17611,3.23448 -2.79712,0.99762 -5.68907,1.80395 -8.63744,2.18121 -3.35956,0.4164 -6.69935,0.92619 -10.07616,1.20003 -3.57404,0.23677 -7.15849,0.25045 -10.73892,0.27125 -0.54576,0.002 -1.09151,0.005 -1.63727,0.005 -6.35976,0.002 -12.71952,0.001 -19.07928,0.001 -2.27636,-3e-5 -4.31299,0.12413 -6.504,-0.54637 -4.51046,-1.48587 -8.35858,-4.13449 -12.06357,-7.03318 -3.77588,-2.86052 -7.36559,-5.88636 -10.62496,-9.33347 -3.00398,-3.88675 -5.31198,-8.20428 -7.63739,-12.51557 -2.37018,-4.9627 -4.10345,-10.17984 -5.53527,-15.47931 -1.50658,-4.59587 -2.18718,-9.40327 -3.15443,-14.12999 -0.8811,-4.08105 -2.14114,-8.05454 -3.23537,-12.07759 -0.18525,-0.53659 -0.32791,-1.08985 -0.55575,-1.60979 -0.1985,-0.453 -0.52346,-0.84367 -0.71853,-1.29816 -0.68952,-1.60658 -0.81463,-3.35239 -1.93622,-4.730822 -0.40466,-2.237762 -1.97665,-3.812387 -2.86907,-5.835674 -1.34309,-2.001614 -2.71135,-4.25462 -4.85117,-5.437964 -2.13985,-1.766742 -4.23498,-3.558394 -6.37505,-5.33836 -2.25269,-1.453851 -4.66919,-2.559606 -7.25692,-3.244587 -1.15856,-1.371185 -3.12774,-1.153811 -4.45923,-1.768423 -3.46298,-1.598499 1.38173,-0.132926 -2.15675,-1.089017 -0.3745,-0.08949 -0.77317,-0.108702 -1.1235,-0.268465 -0.42107,-0.192022 -0.75019,-0.546087 -1.15489,-0.770559 -1.29889,-0.720439 -2.78188,-0.860737 -4.22807,-0.995234 -2.9005,-1.029131 -5.94936,-1.245305 -8.99299,-1.424067 -0.66144,-0.02703 -1.32268,-0.05945 -1.98431,-0.08108 -2.19039,-0.0716 -6.00028,-0.110628 -4.22264,-0.08521 25.56455,0.365564 17.35378,-0.372189 10.55277,1.045692 -4.58579,1.642539 -9.22904,3.146408 -13.79971,4.832877 -3.26794,0.95403 -5.32268,1.971059 -7.54421,4.5431 -3.77045,5.635618 -8.43842,10.582731 -12.86482,15.697822 -5.60943,6.797971 -11.94981,12.973361 -18.72253,18.601081 -5.63896,4.5043 -11.58332,8.63884 -17.59384,12.63245 -4.77952,3.03804 -9.63532,5.87348 -14.7007,8.40119 -3.75929,1.97218 -7.57628,3.85094 -11.51872,5.43009 -3.16332,1.33811 -6.38903,2.49632 -9.55983,3.82151 -3.09558,1.00618 -6.10104,2.20398 -8.98296,3.713 -2.36893,1.36594 -4.49269,3.08098 -6.59279,4.81941 -1.94491,1.50434 -3.88818,2.98343 -6.06238,4.1474 -2.27157,1.38895 -4.66304,2.56181 -7.10127,3.62456 -2.652619,1.1827 -5.544817,1.47878 -8.408512,1.66546 -8.456707,0.31125 -16.92367,0.15176 -25.384526,0.11683 -1.890859,-0.29936 -4.221391,0.56432 -6.011631,-0.3184 -0.450812,-0.22229 -0.805523,-0.60142 -1.208285,-0.90213 -0.453035,-0.88045 -1.504723,-0.95835 -2.160912,-1.5561 -0.37965,-0.34584 -0.590655,-0.84343 -0.934524,-1.22486 -1.221664,-1.35513 -1.928401,-1.39449 -3.102312,-3.02639 -1.647123,-0.93065 -2.299573,-2.83641 -3.462808,-4.23433 -2.69751,-3.24174 0.974082,1.9257 -1.560937,-1.76656 -1.584922,-1.00613 -2.49263,-2.7237 -2.752512,-4.54731 -0.03545,-0.65984 -0.07186,-0.63294 -0.581203,-0.76657 0,0 17.891923,-1.33357 17.891923,-1.33357 l 0,0 c 0.294377,0.55047 0.549129,1.11129 0.564507,1.7503 0.466441,1.5621 1.49556,2.63056 2.644448,3.75794 1.632148,1.99235 3.052207,4.16199 4.96399,5.91059 1.87371,1.88956 3.832472,3.76077 6.150547,5.09738 2.310297,0.63419 4.726145,0.29453 7.101322,0.38623 6.974155,0.006 -0.36058,-7.9e-4 -14.900743,0.002 -0.398923,8e-5 0.797843,0.002 1.196766,0.002 0.980756,10e-4 1.483519,0.002 2.496157,-0.0105 0.508371,-0.006 1.016677,-0.0173 1.525016,-0.0259 2.782056,-0.0881 5.655071,-0.15437 8.303189,-1.07952 1.18476,-0.43973 2.553383,-0.88186 3.663504,-1.48068 0.421845,-0.22755 0.741785,-0.62215 1.1726,-0.83222 2.792858,-1.36184 -0.404691,0.93404 2.223259,-1.13402 2.206227,-1.14803 4.229072,-2.24437 6.047535,-3.93978 2.825462,-1.54211 -0.838813,0.61957 2.031315,-1.70603 0.342318,-0.27737 0.824867,-0.33932 1.172777,-0.60964 0.40155,-0.312 0.64639,-0.7953 1.04378,-1.11259 0.73791,-0.58918 1.76274,-0.7554 2.40085,-1.50354 2.75737,-1.8385 5.88855,-3.08928 9.06379,-3.93704 3.16477,-1.39746 6.37701,-2.60507 9.57392,-3.86864 3.96006,-1.56225 7.8752,-3.21791 11.61286,-5.28384 5.10955,-2.4471 10.03404,-5.12464 14.80306,-8.19472 6.16227,-3.73869 11.98136,-8.10359 17.74945,-12.41151 6.81768,-5.45864 13.25071,-11.48059 18.7322,-18.297337 4.33906,-5.055895 8.95479,-9.980486 12.44031,-15.683241 0.74504,-0.961869 1.28318,-2.094397 2.14496,-2.953233 1.24618,-1.241917 3.87759,-2.004986 5.50753,-2.48518 4.55586,-1.88677 9.40667,-2.973114 13.90313,-5.047997 9.82109,-2.860744 20.34976,-1.532668 30.48953,-1.19478 3.10873,0.264366 6.13296,0.823 9.16445,1.547693 2.31011,0.502862 4.31118,1.638846 6.5377,2.397221 2.15101,1.025782 4.47045,1.659265 6.596,2.754399 2.60995,0.928145 5.1251,2.218852 7.30086,3.943815 2.10756,1.760241 4.2026,3.534541 6.36521,5.227733 2.00175,1.805496 3.73417,3.894238 4.9788,6.301135 0.99445,1.870169 2.25148,3.583845 2.85873,5.63969 1.31065,2.593182 1.94849,5.505662 3.09957,8.170422 1.07695,4.05854 2.2374,8.09085 3.14801,12.19306 0.92536,4.69744 1.62779,9.451 3.09398,14.02251 1.35862,5.18315 3.12095,10.25985 5.51962,15.06161 2.30113,4.18592 4.56521,8.39911 7.69674,12.04466 3.24405,3.34101 6.83255,6.25959 10.54231,9.06682 3.68019,2.73676 7.56029,5.20001 12.09528,6.23497 1.66426,0.17519 3.27481,0.18141 4.94629,0.18324 0.51388,5.6e-4 2.05552,0.001 1.54164,0.001 -14.77977,0.003 -21.38613,-0.003 -14.25631,0.003 3.57141,-0.002 7.14494,-0.004 10.71364,-0.15676 3.36845,-0.19455 6.72384,-0.51845 10.03627,-1.18356 2.93641,-0.10424 5.75131,-0.81968 8.55079,-1.71122 1.20664,-0.47874 2.46915,-0.73094 3.65812,-1.24577 2.49164,-1.0789 -0.27102,-0.004 2.26011,-1.25299 0.38796,-0.19146 0.80722,-0.31155 1.21083,-0.46733 1.9613,-1.02051 3.85365,-2.14175 5.69183,-3.35256 1.58163,-0.84501 2.69079,-2.41433 4.27943,-3.29912 1.67117,-0.95754 3.19864,-2.0587 4.84904,-3.05568 1.99703,-0.95976 3.9729,-1.93675 5.85738,-3.08658 2.42356,-0.98812 4.69285,-2.68502 6.70818,-4.33453 2.59276,-1.84424 4.82316,-4.11139 7.15974,-6.25363 2.42131,-2.21607 4.35791,-4.94786 6.36389,-7.52676 1.95498,-2.86529 4.05107,-5.65086 6.10907,-8.43822 2.19492,-2.65687 4.53569,-5.18131 6.96823,-7.62551 2.7694,-2.84827 5.63366,-5.61562 8.62981,-8.19981 3.51643,-3.20699 7.15177,-6.27816 11.00602,-9.07591 4.24825,-3.35156 8.77977,-6.266379 13.53311,-8.856103 5.14171,-2.898433 10.59906,-5.102412 15.8888,-7.704754 5.31064,-2.078744 10.59404,-4.286671 16.16712,-5.587347 4.84619,-1.49356 9.76784,-2.508472 14.79497,-3.224175 3.1209,-0.633724 1.56518,-0.245856 4.66551,-1.170187 2.69108,-0.56404 5.56359,-0.675633 8.29604,-0.785222 3.4996,-0.0077 6.99929,-0.01045 10.4987,-0.05105 9.24628,-0.118055 18.50076,-0.419383 27.74436,-0.04899 2.89764,0.271573 5.74634,0.918625 8.58281,1.557378 2.58243,0.534069 4.73598,1.665198 6.84589,3.249553 2.35346,1.697233 4.59099,3.543346 6.25905,5.950408 2.52926,2.554213 4.44937,5.576358 6.47556,8.533104 2.14673,3.195255 5.04767,5.819595 7.70828,8.578625 3.2734,3.54979 5.93047,7.62034 9.21023,11.16975 4.07291,5.01796 8.19478,9.98781 12.54171,14.77331 6.22931,6.90079 12.31676,13.95141 18.90154,20.51234 6.74856,6.7489 13.77198,13.45769 21.98679,18.40165 0,0 -17.56806,1.87579 -17.56806,1.87579 z"
       inkscape:connector-curvature="0" />
    <path
       style="opacity:0.83999999;fill:none;fill-opacity:1;fill-rule:evenodd;stroke:#b400b4;stroke-width:7.08661413;stroke-linecap:round;stroke-linejoin:round;stroke-miterlimit:4;stroke-dasharray:none;stroke-dashoffset:0;stroke-opacity:1"
       id="path12768"
       d="m 59.368295,151.826 c 0.587171,-3.94097 0.822075,-7.93077 1.450063,-11.86297 0.884102,-3.05767 0.795204,-6.33934 1.760153,-9.35201 0.874571,-3.03336 0.976382,-6.17205 1.876818,-9.19605 0.597769,-3.06652 1.355479,-6.10546 1.866216,-9.18961 0.734995,-3.57674 1.456449,-7.11171 2.479052,-10.61344 0.70893,-2.847406 1.520717,-5.674927 2.346347,-8.491426 0.627741,-2.253277 1.466482,-4.421074 2.254991,-6.617475 0.614296,-2.158025 1.371553,-4.294066 2.210195,-6.377811 0.454324,-0.718311 0.95335,-1.359949 1.327061,-2.120436 0,0 10.414204,0.399854 10.414204,0.399854 l 0,0 c -0.3055,0.889683 -0.638199,1.483592 -1.356839,2.119399 -0.83773,2.066372 -1.629082,4.172281 -2.213544,6.317241 -0.703994,2.211463 -1.673587,4.325717 -2.285483,6.576322 -0.836561,2.815373 -1.647746,5.648595 -2.371435,8.493772 -1.050827,3.45053 -1.764398,6.93339 -2.470294,10.47635 -0.47489,3.13633 -1.291456,6.21195 -1.879581,9.32716 -0.910984,3.0345 -1.022329,6.18808 -1.844651,9.24933 -1.142178,2.88002 -0.769423,6.21216 -1.820463,9.16303 -0.628005,3.87418 -0.889838,7.80385 -1.367537,11.69877 0,0 -10.375273,0 -10.375273,0 z"
       inkscape:connector-curvature="0" />
    <path
       style="opacity:0.83999999;fill:none;fill-opacity:1;fill-rule:evenodd;stroke:#b400b4;stroke-width:6.6441803;stroke-linecap:round;stroke-linejoin:round;stroke-miterlimit:4;stroke-dasharray:none;stroke-dashoffset:0;stroke-opacity:1"
       id="path12770"
       d="m 90.665048,150.72569 c 0.05745,-3.94037 0.08867,-7.88113 0.10792,-11.82179 0.08366,-5.66335 0.969539,-11.34121 2.171912,-16.91206 0.963401,-4.88417 2.022827,-9.74715 3.520336,-14.53457 0.868018,-3.94311 2.382281,-7.738624 3.594574,-11.604654 0.77846,-2.793166 1.78812,-5.52818 2.38777,-8.355825 0.23255,-1.872416 1.12923,-3.60713 1.55614,-5.448988 0.68205,-1.283036 1.51133,-2.395767 1.81949,-3.80528 0.0272,-0.440735 0.29824,-0.810651 0.55812,-1.176333 0,0 10.619,0.548825 10.619,0.548825 l 0,0 c -0.25928,0.26774 -0.5282,0.444022 -0.55195,0.81197 -0.37422,1.39611 -0.84083,2.643474 -1.87294,3.787815 -0.39254,1.856236 -1.29229,3.581447 -1.58948,5.442873 -0.61466,2.855274 -1.65801,5.609895 -2.46718,8.426805 -1.21737,3.869605 -2.81585,7.649222 -3.62617,11.609602 -1.57515,4.75084 -2.64447,9.59201 -3.60061,14.45979 -1.22838,5.51195 -2.11638,11.14262 -2.16295,16.75003 0.0192,3.94066 0.0504,7.88142 0.10792,11.82179 0,0 -10.571902,0 -10.571902,0 z"
       inkscape:connector-curvature="0" />
    <path
       style="opacity:0.83999999;fill:none;fill-opacity:1;fill-rule:evenodd;stroke:#b400b4;stroke-width:7.08661413;stroke-linecap:round;stroke-linejoin:round;stroke-miterlimit:4;stroke-dasharray:none;stroke-dashoffset:0;stroke-opacity:1"
       id="path12772"
       d="m 120.91207,138.49387 c 0.0782,-4.21395 0.0553,-8.42891 0.0748,-12.64346 0.024,-4.63939 -0.01,-9.27881 -0.0307,-13.91814 -0.0561,-3.61801 0.69239,-7.18421 1.07751,-10.77197 0.0128,-2.785867 0.66116,-5.455644 1.28242,-8.148325 0.2369,-1.87069 0.93809,-3.614226 1.48014,-5.406726 0.55151,-1.405759 0.85608,-2.834795 1.41233,-4.242521 0.57308,-1.125387 1.67467,-1.903075 2.13235,-3.086629 0.38467,-0.812543 0.19103,-0.399228 0.58061,-1.24009 0,0 10.42208,0.423791 10.42208,0.423791 l 0,0 c -0.35362,0.882325 -0.1593,0.490392 -0.556,1.188776 -0.43899,1.217677 -1.1104,2.259471 -2.15034,3.077932 -0.47601,1.416978 -0.95794,2.769597 -1.42832,4.188092 -0.5483,1.770821 -1.24959,3.486235 -1.50059,5.333677 -0.61615,2.65639 -1.37285,5.263343 -1.34754,8.023573 -0.38876,3.55034 -1.13516,7.08215 -1.0984,10.66042 -0.0208,4.63933 -0.0547,9.27875 -0.0307,13.91814 0.0195,4.21455 -0.003,8.42951 0.0748,12.64346 0,0 -10.39439,0 -10.39439,0 z"
       inkscape:connector-curvature="0" />
    <path
       style="opacity:0.83999999;fill:none;fill-opacity:1;fill-rule:evenodd;stroke:#b400b4;stroke-width:7.08661413;stroke-linecap:round;stroke-linejoin:round;stroke-miterlimit:4;stroke-dasharray:none;stroke-dashoffset:0;stroke-opacity:1"
       id="path12774"
       d="m 218.49661,136.99257 c 0.0768,-3.96482 0.043,-7.93042 0.0626,-11.89559 -0.0183,-3.93225 -0.0121,-7.91156 0.81106,-11.76967 1.00618,-3.62162 1.68908,-7.35864 2.96389,-10.90175 0.97671,-2.702467 1.60844,-5.501062 2.43038,-8.249472 0.69807,-2.131224 0.87681,-4.356911 1.58845,-6.480839 0.41142,-1.67217 1.06379,-3.214863 1.74305,-4.785341 0.34045,-0.854052 0.71274,-1.676728 0.83463,-2.592041 0.35446,-0.994864 0.95683,-1.841702 1.28544,-2.849782 0.23342,-0.926912 0.25571,-1.888158 0.26489,-2.838829 0.0107,-0.849146 0.007,-1.698526 0.002,-2.547735 0,0 10.45393,-0.0037 10.45393,-0.0037 l 0,0 c 0.001,0.856794 0.008,1.713501 0.005,2.570327 -0.0276,1.053442 -0.0536,2.108387 -0.27083,3.144419 -0.303,0.959791 -0.64155,1.864814 -1.2703,2.665292 -0.13725,1.012025 -0.42419,1.922729 -0.8989,2.834342 -0.55141,1.598856 -1.44656,3.049132 -1.74862,4.756539 -0.78104,2.092425 -0.90737,4.312585 -1.6301,6.426901 -0.82121,2.776794 -1.51178,5.582889 -2.45165,8.325399 -1.38457,3.44821 -2.00006,7.18395 -2.9918,10.7511 -0.86924,3.77415 -0.81076,7.68872 -0.85196,11.54486 0.0196,3.96517 -0.0141,7.93077 0.0626,11.89559 0,0 -10.3944,0 -10.3944,0 z"
       inkscape:connector-curvature="0" />
    <path
       style="opacity:0.83999999;fill:none;fill-opacity:1;fill-rule:evenodd;stroke:#b400b4;stroke-width:7.08661413;stroke-linecap:round;stroke-linejoin:round;stroke-miterlimit:4;stroke-dasharray:none;stroke-dashoffset:0;stroke-opacity:1"
       id="path12776"
       d="m 239.52438,130.80779 c -0.21418,-4.92752 0.59755,-9.727 1.83369,-14.47537 0.88001,-4.10339 1.7613,-8.23828 3.15605,-12.20257 0.59535,-2.95761 2.27225,-5.497728 3.32458,-8.278138 1.14732,-2.848072 2.09233,-5.761412 3.3003,-8.588575 0.80208,-1.985637 1.32062,-4.047813 2.20281,-5.995716 0.32249,-0.801528 0.82502,-1.499015 1.01723,-2.343209 0,0 10.44565,0.188419 10.44565,0.188419 l 0,0 c -0.14727,0.98633 -0.53641,1.722018 -1.05973,2.569913 -0.78071,1.986786 -1.60223,3.959422 -2.26583,6.011623 -1.27349,2.778459 -2.12122,5.703162 -3.29394,8.518506 -0.98458,2.811863 -2.73853,5.317797 -3.36381,8.273307 -1.44456,3.92377 -2.3491,8.03407 -3.22788,12.11431 -1.27947,4.64434 -2.06719,9.37339 -1.69384,14.2075 0,0 -10.37528,0 -10.37528,0 z"
       inkscape:connector-curvature="0" />
    <path
       style="opacity:0.83999999;fill:none;fill-opacity:1;fill-rule:evenodd;stroke:#b400b4;stroke-width:7.08661413;stroke-linecap:round;stroke-linejoin:round;stroke-miterlimit:4;stroke-dasharray:none;stroke-dashoffset:0;stroke-opacity:1"
       id="path12778"
       d="m 260.54259,135.31169 c 0.0577,-3.63974 0.0618,-7.28117 0.008,-10.92098 -0.0175,-1.81564 0.18937,-3.67956 1.01736,-5.31507 0.35644,-1.31124 1.43533,-2.22919 1.861,-3.48716 0.55175,-1.24594 1.25917,-2.38417 1.78135,-3.64464 0.72205,-1.43464 1.78337,-2.62359 2.67457,-3.946 0.93155,-1.29039 2.07679,-2.46995 2.81557,-3.88709 0.71224,-0.70139 1.12199,-1.71154 1.84821,-2.38928 0.0752,-0.68312 0.38038,-1.32981 0.73824,-1.980187 0,0 10.4405,0.431907 10.4405,0.431907 l 0,0 c -0.0737,0.20331 -0.14743,0.40662 -0.22114,0.60993 -0.0717,0.11023 -0.10435,0.2597 -0.21502,0.33069 -0.0504,0.0323 -0.12362,-0.14734 -0.15257,-0.0949 -0.21871,0.39613 0.1894,1.13707 -0.1447,1.53427 -0.15839,0.1623 -0.43704,0.17967 -0.57988,0.35581 -0.4392,0.54159 -0.49945,1.43225 -1.28224,1.71384 -0.77695,1.42279 -1.7528,2.81726 -2.84654,3.94871 -0.77115,1.36906 -1.87427,2.46703 -2.65034,3.79203 -0.52817,1.20446 -0.99909,2.40679 -1.77839,3.491 -0.30974,1.46578 -1.4329,2.34105 -1.87773,3.7594 -0.91908,1.41083 -0.99141,3.13832 -1.06881,4.77675 -0.0539,3.63981 -0.0498,7.28124 0.008,10.92098 0,0 -10.37528,0 -10.37528,0 z"
       inkscape:connector-curvature="0" />
    <path
       style="opacity:0.83999999;fill:none;fill-opacity:1;fill-rule:evenodd;stroke:#b400b4;stroke-width:7.08661413;stroke-linecap:round;stroke-linejoin:round;stroke-miterlimit:4;stroke-dasharray:none;stroke-dashoffset:0;stroke-opacity:1"
       id="path12780"
       d="m 319.09332,162.3351 c 0.0957,-4.85482 0.0706,-9.71086 0.0704,-14.56633 -0.027,-3.31071 -0.0662,-6.62137 -0.066,-9.93217 0.003,-2.84404 0.006,-5.68807 0.007,-8.5321 -0.0161,-2.1651 -0.0268,-4.33062 -0.0303,-6.4959 -0.002,-0.26029 -0.004,-0.52058 -0.007,-0.78087 0,0 10.42597,0 10.42597,0 l 0,0 c -0.002,0.26029 -0.004,0.52058 -0.006,0.78087 -0.004,2.16528 -0.0142,4.3308 -0.0303,6.4959 0.002,2.84403 0.004,5.68806 0.007,8.5321 2.6e-4,3.3108 -0.039,6.62146 -0.066,9.93217 -1.7e-4,4.85547 -0.0253,9.71151 0.0704,14.56633 0,0 -10.37527,0 -10.37527,0 z"
       inkscape:connector-curvature="0" />
    <path
       style="opacity:0.83999999;fill:none;fill-opacity:1;fill-rule:evenodd;stroke:#b400b4;stroke-width:7.26963568;stroke-linecap:round;stroke-linejoin:round;stroke-miterlimit:4;stroke-dasharray:none;stroke-dashoffset:0;stroke-opacity:1"
       id="path12782"
       d="m 343.17351,171.07181 c -0.56218,-6.49826 -1.67623,-12.92005 -2.3897,-19.39484 -0.49842,-5.45383 -0.58507,-10.93341 -0.60862,-16.40901 0.003,-2.56119 -0.0248,-5.12215 -0.005,-7.68328 -0.015,-1.34346 0.0189,-2.68811 -0.0103,-4.03126 0.0119,-1.57274 0.0176,-3.14575 0.0277,-4.71879 -0.002,-1.96949 -4e-4,-3.9386 -0.005,-5.908 0.003,-2.10192 0.014,-4.20391 0.005,-6.30582 0.0102,-1.4928 -0.005,-2.98526 -0.0179,-4.47794 0,0 10.30007,0 10.30007,0 l 0,0 c -0.0133,1.49268 -0.0281,2.98514 -0.018,4.47794 -0.01,2.10189 0.002,4.2039 0.005,6.30581 -0.005,1.96937 -0.003,3.93847 -0.005,5.90793 0.0105,1.57337 0.0168,3.14672 0.0279,4.71981 -0.0314,1.34548 -0.002,2.69251 -0.034,4.03824 -0.0138,2.55909 -0.10686,5.11669 -0.11393,7.67594 -0.0287,5.4299 -0.0101,10.86924 0.47041,16.2798 0.71993,6.52486 1.79609,13.00785 2.58683,19.52347 0,0 -10.21484,0 -10.21484,0 z"
       inkscape:connector-curvature="0" />
    <path
       style="opacity:0.83999999;fill:none;fill-opacity:1;fill-rule:evenodd;stroke:#b400b4;stroke-width:7.6543231;stroke-linecap:round;stroke-linejoin:round;stroke-miterlimit:4;stroke-dasharray:none;stroke-dashoffset:0;stroke-opacity:1"
       id="path12784"
       d="m 372.95505,163.81793 c -0.80903,-7.3432 -1.99173,-14.64803 -3.47119,-21.84196 -1.34991,-8.52501 -2.72486,-17.04704 -3.37043,-25.70208 -0.73995,-5.36916 -1.40483,-10.71845 -2.32231,-16.04671 -0.3195,-1.648434 -0.56854,-3.308722 -0.76189,-4.985671 0,0 10.13641,-0.165609 10.13641,-0.165609 l 0,0 c 0.16511,1.644876 0.40124,3.274559 0.67158,4.898225 0.87837,5.374595 1.44482,10.784515 2.16449,16.193555 0.57471,8.59591 1.9554,17.05097 3.31144,25.50481 1.51147,7.24436 2.63923,14.59511 3.74691,21.93953 0,0 -10.10501,0.20591 -10.10501,0.20591 z"
       inkscape:connector-curvature="0" />
    <path
       style="opacity:0.83999999;fill:none;fill-opacity:1;fill-rule:evenodd;stroke:#b400b4;stroke-width:7.74435568;stroke-linecap:round;stroke-linejoin:round;stroke-miterlimit:4;stroke-dasharray:none;stroke-dashoffset:0;stroke-opacity:1"
       id="path12786"
       d="m 407.32271,138.54247 c -1.14698,-4.50926 -2.26738,-9.00744 -3.04836,-13.64804 -1.0882,-4.60427 -0.8541,-9.45748 -1.47818,-14.16893 -0.68896,-2.39915 -0.96413,-4.9329 -1.01014,-7.47587 -0.57289,-1.24621 -0.71946,-2.7816 -1.31009,-3.991467 -0.17722,-2.13103 -0.41358,-4.153883 -0.82679,-6.238466 -0.26161,-1.732905 -0.85971,-3.265777 -0.8848,-5.047181 -0.0496,-0.23177 -0.0992,-0.463541 -0.14877,-0.695312 0,0 10.07878,-0.307842 10.07878,-0.307842 l 0,0 c 0.0561,0.324018 0.11221,0.648036 0.16832,0.972054 0.0409,1.65355 0.63878,3.129807 0.84417,4.755426 0.3999,1.976553 0.59009,3.947805 0.84088,5.942872 0.51683,1.477126 0.98082,3.024026 1.31767,4.579756 0.0459,2.48544 0.287,4.93973 0.92255,7.30583 0.53849,4.69891 0.33961,9.51758 1.42703,14.09892 0.77338,4.58043 1.88132,9.03751 3.15403,13.42891 0,0 -10.0463,0.48934 -10.0463,0.48934 z"
       inkscape:connector-curvature="0" />
    <path
       style="opacity:0.83999999;fill:none;fill-opacity:1;fill-rule:evenodd;stroke:#b400b4;stroke-width:7.08661413;stroke-linecap:round;stroke-linejoin:round;stroke-miterlimit:4;stroke-dasharray:none;stroke-dashoffset:0;stroke-opacity:1"
       id="path12788"
       d="m 470.71514,133.98997 c 0.0969,-4.6605 0.0745,-9.32251 0.0848,-13.98381 0.0161,-4.28956 -0.0617,-8.57933 -0.0426,-12.86876 -0.14739,-2.45208 0.42979,-4.85427 1.02668,-7.213633 0.17752,-0.795732 0.28323,-1.603858 0.36076,-2.414373 0,0 10.43855,0.07519 10.43855,0.07519 l 0,0 c -0.046,0.888409 -0.22435,1.744995 -0.36673,2.623486 -0.68821,2.24065 -1.24131,4.57355 -1.14924,6.92933 0.0191,4.28943 -0.0587,8.5792 -0.0426,12.86876 0.0104,4.6613 -0.0121,9.32331 0.0848,13.98381 0,0 -10.39439,0 -10.39439,0 z"
       inkscape:connector-curvature="0" />
    <path
       style="opacity:0.83999999;fill:none;fill-opacity:1;fill-rule:evenodd;stroke:#b400b4;stroke-width:7.08661413;stroke-linecap:round;stroke-linejoin:round;stroke-miterlimit:4;stroke-dasharray:none;stroke-dashoffset:0;stroke-opacity:1"
       id="path12790"
       d="m 488.73075,155.00818 c 0.22221,-7.27787 1.26393,-14.49969 1.96198,-21.74151 0.80009,-7.82785 1.69227,-15.66396 2.79469,-23.46068 0.49192,-3.51219 0.98873,-7.03111 1.17912,-10.575065 0.0842,-1.589363 0.0675,-3.181064 0.0849,-4.771993 0.11038,-2.826952 0.0514,-5.605548 -0.41776,-8.393756 -0.27957,-1.05806 -0.49608,-2.127764 -0.68645,-3.204595 0,0 10.39638,-0.184314 10.39638,-0.184314 l 0,0 c 0.19538,1.075812 0.42082,2.144325 0.63828,3.215906 0.48168,2.846906 0.50472,5.678318 0.46691,8.564336 0.0251,1.616122 0.0558,3.2379 -0.0822,4.849621 -0.32455,3.56791 -0.81186,7.11536 -1.39935,10.65083 -1.22248,7.76604 -2.14158,15.58969 -2.96842,23.40226 -0.6418,7.20058 -1.69202,14.40902 -1.57366,21.64896 0,0 -10.39439,0 -10.39439,0 z"
       inkscape:connector-curvature="0" />
    <path
       style="opacity:0.83999999;fill:none;fill-opacity:1;fill-rule:evenodd;stroke:#b400b4;stroke-width:7.08661413;stroke-linecap:round;stroke-linejoin:round;stroke-miterlimit:4;stroke-dasharray:none;stroke-dashoffset:0;stroke-opacity:1"
       id="path12792"
       d="m 514.27198,153.14771 c 0.13028,-5.7925 0.0802,-11.58694 0.0837,-17.38034 -3.2e-4,-5.41461 -0.033,-10.82933 -0.0239,-16.24388 -0.009,-4.23606 -0.0217,-8.47205 -0.0442,-12.70804 0.003,-2.7333 -0.038,-5.46655 -0.0289,-8.199707 -0.0146,-1.499985 -0.0379,-3.000176 -0.0266,-4.50022 -0.0194,-1.092039 -0.0891,-2.16732 0.17879,-3.228083 0.47813,-0.943538 0.94075,-1.877524 1.15059,-2.921051 0.16057,-1.055509 0.18567,-2.129987 0.17138,-3.196189 0.0146,-0.696224 -0.004,-1.39201 -0.004,-2.088131 0,0 10.45771,-0.0039 10.45771,-0.0039 l 0,0 c 0.005,0.700006 -0.007,1.399873 0.003,2.099946 -0.0318,1.120867 0.0147,2.257377 -0.18637,3.364088 -0.15396,1.061093 -0.47542,2.200933 -1.15504,3.046799 -0.3447,0.927608 -0.0968,1.950937 -0.18037,2.926476 0.0112,1.500044 -0.012,3.000235 -0.0266,4.50022 0.009,2.733152 -0.0317,5.466402 -0.0289,8.199702 -0.0226,4.23599 -0.0347,8.47198 -0.0442,12.70804 0.009,5.41455 -0.0236,10.82927 -0.0239,16.24388 0.003,5.7934 -0.0466,11.58784 0.0837,17.38034 0,0 -10.35615,0 -10.35615,0 z"
       inkscape:connector-curvature="0" />
    <path
       style="opacity:0.83999999;fill:none;fill-opacity:1;fill-rule:evenodd;stroke:#b400b4;stroke-width:7.08661413;stroke-linecap:round;stroke-linejoin:round;stroke-miterlimit:4;stroke-dasharray:none;stroke-dashoffset:0;stroke-opacity:1"
       id="path12794"
       d="m 541.28583,141.31689 c 0.0913,-4.95166 0.0865,-9.90432 0.0741,-14.8566 0.019,-4.33545 -0.0455,-8.67074 -0.0488,-13.00606 -0.0292,-2.52291 -0.0317,-5.04641 -0.0293,-7.56958 0.003,-1.71137 -0.0256,-3.42267 -0.0315,-5.13383 -0.21758,-1.248088 0.52817,-2.154696 0.91591,-3.261836 0.37678,-1.932315 0.73671,-3.849962 1.26817,-5.752462 0.43817,-1.607525 0.66956,-3.257464 0.77774,-4.917003 0.0564,-0.999469 0.0594,-2.001026 0.0497,-3.001731 0,0 10.45255,-2.64e-4 10.45255,-2.64e-4 l 0,0 c -0.009,1.027451 -0.002,2.055355 -0.0575,3.081766 -0.15164,1.733446 -0.39248,3.45216 -0.82188,5.141947 -0.61443,1.889816 -0.89065,3.814854 -1.24571,5.758454 -0.30285,1.11416 -0.99885,1.820789 -0.89272,2.951129 -0.006,1.71116 -0.0346,3.42246 -0.0315,5.13383 0.002,2.52317 -1.3e-4,5.04667 -0.0293,7.56958 -0.003,4.33532 -0.0678,8.67061 -0.0488,13.00606 -0.0124,4.95228 -0.0172,9.90494 0.0741,14.8566 0,0 -10.37527,0 -10.37527,0 z"
       inkscape:connector-curvature="0" />
    <path
       style="opacity:0.83999999;fill:none;fill-opacity:1;fill-rule:evenodd;stroke:#b400b4;stroke-width:7.08661413;stroke-linecap:round;stroke-linejoin:round;stroke-miterlimit:4;stroke-dasharray:none;stroke-dashoffset:0;stroke-opacity:1"
       id="path12796"
       d="m 611.83741,139.99517 c 0.0752,-3.52135 0.0539,-7.04412 0.018,-10.56585 -0.019,-1.95897 -0.0206,-3.91804 -0.0347,-5.87703 0.0195,-1.55075 -0.0188,-3.10166 0.002,-4.65218 -0.01,-1.10444 -0.0309,-2.20949 -0.008,-3.3138 -0.0171,-1.02164 -0.002,-2.04297 -0.006,-3.06482 -0.006,-0.56845 0.01,-1.13594 0.003,-1.70446 0,0 10.44836,0 10.44836,0 l 0,0 c -0.007,0.56852 0.009,1.13601 0.003,1.70446 -0.004,1.02185 0.0106,2.04318 -0.006,3.06482 0.0225,1.10431 10e-4,2.20936 -0.008,3.3138 0.0204,1.55052 -0.0179,3.10143 0.002,4.65218 -0.0141,1.95899 -0.0158,3.91806 -0.0348,5.87703 -0.0359,3.52173 -0.0572,7.0445 0.018,10.56585 0,0 -10.39439,0 -10.39439,0 z"
       inkscape:connector-curvature="0" />
    <path
       style="opacity:0.83999999;fill:none;fill-opacity:1;fill-rule:evenodd;stroke:#b400b4;stroke-width:7.08661413;stroke-linecap:round;stroke-linejoin:round;stroke-miterlimit:4;stroke-dasharray:none;stroke-dashoffset:0;stroke-opacity:1"
       id="path12798"
       d="m 146.44374,124.80258 c -0.0632,-6.05272 0.35453,-12.07962 0.79561,-18.11141 0.56938,-5.62233 1.69037,-11.144261 3.02972,-16.622218 0.39115,-1.487151 0.63544,-3.479618 2.07556,-4.359403 0.48878,0.265158 1.28824,-1.226853 1.62317,-0.60314 0.21415,-0.418903 0.46169,-0.809874 0.7532,-1.177702 0,0 10.43928,0.841928 10.43928,0.841928 l 0,0 c -0.35926,0.237165 -0.59706,0.41732 -0.72425,0.865429 -0.35048,1.364433 -1.31646,0.141608 -1.72768,1.636817 -1.55225,-0.77974 -1.76104,2.101879 -2.13005,3.060837 -1.51035,5.383923 -2.61502,10.861132 -3.19517,16.432192 -0.4475,6.00734 -0.89166,12.00846 -0.56412,18.03667 0,0 -10.37527,0 -10.37527,0 z"
       inkscape:connector-curvature="0" />
  </g>
</svg>
