<?xml version="1.0" encoding="UTF-8" standalone="no"?>
<!-- Created with Inkscape (http://www.inkscape.org/) -->

<svg
   xmlns:dc="http://purl.org/dc/elements/1.1/"
   xmlns:cc="http://creativecommons.org/ns#"
   xmlns:rdf="http://www.w3.org/1999/02/22-rdf-syntax-ns#"
   xmlns:svg="http://www.w3.org/2000/svg"
   xmlns="http://www.w3.org/2000/svg"
   xmlns:sodipodi="http://sodipodi.sourceforge.net/DTD/sodipodi-0.dtd"
   xmlns:inkscape="http://www.inkscape.org/namespaces/inkscape"
   width="210mm"
   height="297mm"
   viewBox="0 0 744.09448819 1052.3622047"
   id="svg2"
   version="1.1"
   inkscape:version="0.91 r13725"
   sodipodi:docname="expectations.svg">
  <defs
     id="defs4" />
  <sodipodi:namedview
     id="base"
     pagecolor="#ffffff"
     bordercolor="#666666"
     borderopacity="1.0"
     inkscape:pageopacity="0.0"
     inkscape:pageshadow="2"
     inkscape:zoom="0.94335937"
     inkscape:cx="491.38161"
     inkscape:cy="699.71524"
     inkscape:document-units="px"
     inkscape:current-layer="layer1"
     showgrid="false"
     inkscape:window-width="1440"
     inkscape:window-height="852"
     inkscape:window-x="0"
     inkscape:window-y="0"
     inkscape:window-maximized="1" />
  <metadata
     id="metadata7">
    <rdf:RDF>
      <cc:Work
         rdf:about="">
        <dc:format>image/svg+xml</dc:format>
        <dc:type
           rdf:resource="http://purl.org/dc/dcmitype/StillImage" />
        <dc:title></dc:title>
      </cc:Work>
    </rdf:RDF>
  </metadata>
  <g
     inkscape:label="Layer 1"
     inkscape:groupmode="layer"
     id="layer1">
    <path
       style="fill:none;fill-rule:evenodd;stroke:#008000;stroke-width:3.54330707;stroke-linecap:butt;stroke-linejoin:miter;stroke-miterlimit:4;stroke-dasharray:none;stroke-opacity:1"
       d="m 137.75302,241.43053 c 26.59043,-0.6632 40.7059,-35.84518 68.87281,-29.18872 28.02603,1.72878 24.50537,41.02279 48.36108,48.51972 21.38171,0.78787 27.3139,-25.00958 41.55266,-36.46974 17.71448,-14.86967 41.03964,-37.24658 65.56226,-21.04855 30.30073,11.46764 42.35604,49.60419 33.40074,78.75306 -13.17546,24.59397 -35.80365,4.49498 -30.76508,-16.81141 -2.76564,-40.61783 40.46438,-75.24068 79.4885,-63.96641 23.37123,4.07878 40.11827,22.56867 61.91042,30.02817 18.36989,9.34582 59.18155,-7.32937 39.69233,-30.07488 -24.90334,-11.52139 -22.23637,31.56664 2.29087,26.99665 27.30622,0.0754 54.39864,8.89362 81.63899,2.95527 27.63683,-16.57084 45.38668,15.97942 70.15552,16.94712 10.88307,-4.63108 17.78691,-18.09103 31.46209,-16.18065"
       id="path4146"
       inkscape:connector-curvature="0"
       inkscape:export-xdpi="251.349"
       inkscape:export-ydpi="251.349" />
    <path
       style="fill:#ff0000;fill-rule:evenodd;stroke:#ff0000;stroke-width:3.54330707;stroke-linecap:butt;stroke-linejoin:miter;stroke-miterlimit:4;stroke-dasharray:none;stroke-opacity:1"
       d="M 146.22149,141.76417 735.62825,102.58756"
       id="path4148"
       inkscape:connector-curvature="0"
       inkscape:export-xdpi="251.349"
       inkscape:export-ydpi="251.349" />
    <text
       xml:space="preserve"
       style="font-style:normal;font-weight:normal;font-size:10px;line-height:125%;font-family:Sans;letter-spacing:0px;word-spacing:0px;fill:#000000;fill-opacity:1;stroke:none;stroke-width:1px;stroke-linecap:butt;stroke-linejoin:miter;stroke-opacity:1"
       x="74.202881"
       y="214.9295"
       id="text4156"
       sodipodi:linespacing="125%"
       inkscape:export-xdpi="251.349"
       inkscape:export-ydpi="251.349"><tspan
         sodipodi:role="line"
         id="tspan4158"
         x="74.202881"
         y="214.9295"
         style="font-style:normal;font-variant:normal;font-weight:normal;font-stretch:normal;font-size:30px;font-family:Helvetica;-inkscape-font-specification:Helvetica">Reality</tspan></text>
    <text
       sodipodi:linespacing="125%"
       id="text4160"
       y="97.264915"
       x="75.262924"
       style="font-style:normal;font-weight:normal;font-size:10px;line-height:125%;font-family:Sans;letter-spacing:0px;word-spacing:0px;fill:#000000;fill-opacity:1;stroke:none;stroke-width:1px;stroke-linecap:butt;stroke-linejoin:miter;stroke-opacity:1"
       xml:space="preserve"
       inkscape:export-xdpi="251.349"
       inkscape:export-ydpi="251.349"><tspan
         style="font-style:normal;font-variant:normal;font-weight:normal;font-stretch:normal;font-size:30px;font-family:Helvetica;-inkscape-font-specification:Helvetica"
         y="97.264915"
         x="75.262924"
         id="tspan4162"
         sodipodi:role="line">Expectations</tspan></text>
    <path
       style="opacity:1;fill:none;fill-opacity:1;fill-rule:evenodd;stroke:#ff0000;stroke-width:3.54330707;stroke-linecap:round;stroke-linejoin:round;stroke-miterlimit:4;stroke-dasharray:none;stroke-dashoffset:0;stroke-opacity:1"
       id="path4454"
       d="m 330.49008,178.76229 c 0.9708,0.59258 1.85835,1.30745 2.64092,2.13123 0.91858,0.75661 1.61033,1.71155 2.32384,2.64961 0.33615,0.47563 0.70299,0.92828 1.0673,1.381 0.0339,0.0485 0.15941,0.13179 0.10182,0.14544 -0.0589,0.014 -0.0701,-0.0991 -0.11169,-0.1431 -0.0675,-0.0714 -0.22359,-0.16473 -0.30599,-0.1798 -0.49321,-0.0902 -0.45457,-0.0123 -0.90707,0.22035 0.78939,-0.99059 1.67727,-1.9169 2.57636,-2.81114 1.04968,-0.99108 1.88191,-2.15139 2.68703,-3.33803 0.35084,-0.53383 0.47393,-1.16148 0.75525,-1.72653 0.26718,-0.53583 0.68658,-0.99172 1.04666,-1.46758 0.43091,-0.54078 0.90822,-1.04111 1.35032,-1.57178 0.11015,-0.0954 0.2203,-0.19085 0.33045,-0.28628 1.18734,-0.9152 2.48164,0.76394 1.2943,1.67915 l 0,0 c 5.1e-4,-0.0109 10e-4,-0.0218 0.002,-0.0327 -0.42254,0.5037 -0.87379,0.98187 -1.2878,1.49333 -0.30794,0.40476 -0.67648,0.78878 -0.88761,1.22523 -0.24065,0.57569 -0.44165,1.32694 -0.84902,1.87798 -0.24394,0.35912 -0.47169,0.72931 -0.72321,1.08316 -0.65721,0.92457 -1.44548,1.75003 -2.22538,2.56979 -0.83841,0.82787 -1.66574,1.6885 -2.39751,2.60977 -0.22559,0.16965 -0.41605,0.4008 -0.67678,0.50893 -0.56034,0.23239 -1.10963,-0.14438 -1.43697,-0.5441 -0.35423,-0.47608 -0.76261,-0.9149 -1.09104,-1.4117 -0.66843,-0.88313 -1.31647,-1.77574 -2.18389,-2.48354 -0.48121,-0.52746 -1.01654,-0.9329 -1.58765,-1.35753 -0.2902,-0.21578 -0.25054,-0.10051 -0.29155,-0.25267 -1.3919,-0.55676 -0.60452,-2.52521 0.78738,-1.96845 z"
       inkscape:connector-curvature="0"
       inkscape:export-xdpi="251.349"
       inkscape:export-ydpi="251.349" />
    <path
       style="opacity:1;fill:#ff0000;fill-opacity:1;fill-rule:evenodd;stroke:#ff0000;stroke-width:3.21649766;stroke-linecap:round;stroke-linejoin:round;stroke-miterlimit:4;stroke-dasharray:none;stroke-dashoffset:0;stroke-opacity:1"
       id="path4458"
       d="m 335.50331,178.78023 c 0,-1.17322 0,-2.34643 0,-3.51965 0,-4.31347 0,-8.62694 0,-12.94042 0.0344,-4.02649 0.11253,-8.05547 0.41811,-12.07552 0.098,-1.11838 0.22343,-2.23512 0.36475,-3.35053 -0.007,-0.26641 0.12175,-0.59049 -0.0118,-0.84102 -0.0593,-0.56368 -0.38209,-1.06917 -0.58021,-1.60433 -0.36718,-0.87696 -0.74415,-1.75169 -1.16254,-2.61417 -0.35173,-0.90553 -0.82016,-1.77843 -1.17408,-2.68316 -0.0736,-0.19365 -0.0905,-0.23654 -0.15634,-0.41457 -0.0146,-0.0393 -0.0727,-0.15162 -0.0431,-0.11803 0.0921,0.10474 0.0732,0.33661 0.23415,0.33515 0.6064,-0.11792 1.2128,-0.23585 1.8192,-0.35377 10e-4,-8.1e-4 0.003,-0.002 0.004,-0.003 0.0314,0.24757 -0.0875,0.49108 -0.21116,0.71433 -0.16092,0.29089 -0.43895,0.51297 -0.72691,0.726 0.12414,-0.0298 -0.83325,0.59154 -0.677,0.56368 -0.0281,0.0318 -0.20181,0.2242 -0.2241,0.26501 -0.0156,0.0285 -0.002,0.0635 -0.0167,0.0921 -0.25685,0.49371 -0.56665,0.98177 -0.85728,1.46268 -0.82509,1.32296 -1.65387,2.64416 -2.47377,3.96977 -0.36985,0.53667 -0.71069,1.08562 -1.05699,1.6317 -0.39866,0.56164 -0.14664,0.2784 -2.08873,-0.2642 -0.0392,-0.011 -0.0399,-0.79222 -0.039,-0.88204 -0.0606,-0.78603 0.18055,-1.52982 0.50441,-2.26477 0.80701,-1.53046 2.02173,-2.87981 3.32634,-4.16345 1.19629,-1.16557 2.51515,-2.24147 3.95658,-3.21556 0.62659,-0.40523 1.31319,-0.73736 2.10005,-0.8934 0.53712,-0.0973 1.04301,-0.003 1.48502,0.25461 0.307,0.22224 -0.0211,-0.0335 0.43218,0.52411 0.0459,0.0564 -0.0594,-0.12672 -0.10395,-0.18384 -0.008,-0.008 -0.033,-0.0344 -0.0256,-0.0253 0.0975,0.11972 0.1974,0.23822 0.29609,0.35734 0.14257,0.22533 0.1792,0.47718 0.1971,0.72495 -0.002,-0.0344 -0.0448,-0.0882 -0.006,-0.10313 0.0362,-0.0139 0.0253,0.0606 0.0369,0.0912 0.14832,0.39164 1.2e-4,0.0791 0.22767,0.42487 0.85672,1.30162 -0.40864,-0.5559 0.58419,0.88972 0.93,1.33432 1.78245,2.70108 2.71033,4.03642 0.28649,0.4312 0.58583,0.85695 0.89275,1.27918 0.0609,0.0838 0.11982,0.16854 0.1843,0.25062 0.0279,0.0356 0.13513,0.12722 0.0927,0.10209 -0.0443,-0.0264 -0.066,-0.0706 -0.0991,-0.10582 -0.88766,-0.40837 -1.05105,-0.20115 -1.6047,0.33645 0.4477,-1.15889 2.51361,-0.6566 2.06589,0.50229 l 0,0 c -0.1557,0.17507 -0.24192,0.40689 -0.4671,0.5252 -0.60975,0.32036 -0.85942,0.12845 -1.38381,-0.0513 -0.70438,-0.56643 -1.0679,-1.33414 -1.57355,-2.01145 -0.92927,-1.33862 -1.78492,-2.7078 -2.71648,-4.04532 -0.44517,-0.65175 -0.95051,-1.30833 -1.10321,-2.05024 0.0251,-0.32783 0.0969,0.19947 -0.0104,-0.0953 0.63413,0.61066 -0.36997,-0.34394 -0.25325,-0.32848 0.15206,0.0201 0.1416,0.23188 0.27655,0.29409 0.099,0.0454 0.62545,0.0996 0.33247,0.0807 -0.3856,-0.007 -0.86925,0.39402 -1.16842,0.52618 -1.34222,0.90185 -2.56109,1.90575 -3.67478,2.98642 -1.1565,1.13321 -2.23718,2.32056 -2.97357,3.66568 -0.26031,0.55286 -0.42943,1.1026 -0.37727,1.69699 -0.008,0.96939 0.1797,0.61586 -1.95913,0.35789 0.34953,-0.53576 0.67084,-1.08383 1.04351,-1.61028 0.81753,-1.32114 1.64427,-2.63791 2.46586,-3.95685 0.34899,-0.57494 0.65095,-1.17002 1.00594,-1.7417 0.0356,-0.0572 0.19315,-0.23211 0.25393,-0.30071 0.29864,-0.30796 0.64887,-0.57469 0.99012,-0.85304 0.16107,-0.11885 0.17137,-0.0968 0.24049,-0.19467 0.0716,-0.14234 0.15165,-0.34252 0.0147,0.15398 -0.0202,0.0732 -0.004,-0.14988 -8.3e-4,-0.22477 10e-4,-0.0354 0.005,-0.0708 0.008,-0.10616 0.10151,-0.61672 0.0351,-0.5342 1.88003,-0.64752 0.21715,-0.0133 0.41233,0.75713 0.47522,0.88346 0.33294,0.86889 0.79783,1.70192 1.12587,2.5724 0.44027,0.91095 0.84163,1.83351 1.22409,2.76071 0.19532,0.58002 0.57372,1.12213 0.61976,1.7338 0.0905,0.45043 0.11427,0.89662 0.0435,1.35127 -0.13877,1.0927 -0.26113,2.18676 -0.35783,3.28235 -0.30447,3.98553 -0.37864,7.98015 -0.41418,11.97208 0,4.31348 0,8.62695 0,12.94042 0,1.17322 0,2.34643 0,3.51965 0,1.21209 -2.16073,1.21209 -2.16073,0 z"
       inkscape:connector-curvature="0"
       inkscape:export-xdpi="251.349"
       inkscape:export-ydpi="251.349" />
    <text
       sodipodi:linespacing="125%"
       id="text4460"
       y="168.28769"
       x="354.05383"
       style="font-style:normal;font-weight:normal;font-size:10px;line-height:125%;font-family:Sans;letter-spacing:0px;word-spacing:0px;fill:#000000;fill-opacity:1;stroke:none;stroke-width:1px;stroke-linecap:butt;stroke-linejoin:miter;stroke-opacity:1"
       xml:space="preserve"
       inkscape:export-xdpi="251.349"
       inkscape:export-ydpi="251.349"><tspan
         style="font-style:normal;font-variant:normal;font-weight:normal;font-stretch:normal;font-size:30px;font-family:Helvetica;-inkscape-font-specification:Helvetica"
         y="168.28769"
         x="354.05383"
         id="tspan4462"
         sodipodi:role="line">Stress</tspan></text>
    <path
       style="fill:none;fill-rule:evenodd;stroke:#008000;stroke-width:3.54330707;stroke-linecap:butt;stroke-linejoin:miter;stroke-miterlimit:4;stroke-dasharray:none;stroke-opacity:1"
       d="m 120.79236,588.06407 c 26.59043,-0.6632 40.7059,-35.84518 68.87281,-29.18872 28.02603,1.72878 24.50537,41.02279 48.36108,48.51972 21.38171,0.78787 27.3139,-25.00958 41.55266,-36.46974 8.85724,-7.43484 19.11715,-16.74648 30.22808,-22.17466"
       id="path4486"
       inkscape:export-xdpi="251.349"
       inkscape:export-ydpi="251.349" />
    <path
       style="fill:none;fill-rule:evenodd;stroke:#008000;stroke-width:3.54330707;stroke-linecap:butt;stroke-linejoin:miter;stroke-miterlimit:4;stroke-dasharray:none;stroke-opacity:1"
       d="m 311.0583,547.00779 c 31.9466,5.39026 51.1507,40.47488 48.00254,70.80544 -8.16965,26.67795 -34.25811,11.33528 -33.4358,-10.54331 -10.56978,-39.31587 25.14706,-81.64651 65.61494,-78.13325 23.71879,-0.51874 43.72592,14.38274 66.54937,17.4863 19.83067,5.6162 56.64629,-18.63796 33.12564,-37.1843 -26.66154,-6.48697 -15.71078,35.27153 7.46933,26.04374 26.80517,-5.20763 55.09159,-1.7962 80.66892,-12.89129 23.90977,-21.60347 47.62036,6.89889 72.10863,3.0575 9.78179,-6.64865 13.95182,-21.18977 27.73827,-21.96054"
       id="path4464"
       inkscape:connector-curvature="0"
       inkscape:export-xdpi="251.349"
       inkscape:export-ydpi="251.349" />
    <text
       sodipodi:linespacing="125%"
       id="text4468"
       y="561.56305"
       x="57.242218"
       style="font-style:normal;font-weight:normal;font-size:10px;line-height:125%;font-family:Sans;letter-spacing:0px;word-spacing:0px;fill:#000000;fill-opacity:1;stroke:none;stroke-width:1px;stroke-linecap:butt;stroke-linejoin:miter;stroke-opacity:1"
       xml:space="preserve"
       inkscape:export-xdpi="251.349"
       inkscape:export-ydpi="251.349"><tspan
         style="font-style:normal;font-variant:normal;font-weight:normal;font-stretch:normal;font-size:30px;font-family:Helvetica;-inkscape-font-specification:Helvetica"
         y="561.56305"
         x="57.242218"
         id="tspan4470"
         sodipodi:role="line">Reality</tspan></text>
    <path
       inkscape:connector-curvature="0"
       id="path4564"
       d="M 309.46787,547.76003 898.87463,508.58342"
       style="fill:#ff0000;fill-rule:evenodd;stroke:#ff0000;stroke-width:3.54330707;stroke-linecap:butt;stroke-linejoin:miter;stroke-miterlimit:4;stroke-dasharray:none;stroke-opacity:1" />
    <text
       xml:space="preserve"
       style="font-style:normal;font-weight:normal;font-size:10px;line-height:125%;font-family:Sans;letter-spacing:0px;word-spacing:0px;fill:#000000;fill-opacity:1;stroke:none;stroke-width:1px;stroke-linecap:butt;stroke-linejoin:miter;stroke-opacity:1"
       x="241.68942"
       y="512.80115"
       id="text4566"
       sodipodi:linespacing="125%"
       inkscape:export-xdpi="251.349"
       inkscape:export-ydpi="251.349"><tspan
         sodipodi:role="line"
         id="tspan4568"
         x="241.68942"
         y="512.80115"
         style="font-style:normal;font-variant:normal;font-weight:normal;font-stretch:normal;font-size:30px;font-family:Helvetica;-inkscape-font-specification:Helvetica">Expectations</tspan></text>
  </g>
</svg>
